<?xml version="1.0" encoding="UTF-8"?>
<!DOCTYPE svg PUBLIC "-//W3C//DTD SVG 1.1//EN" "http://www.w3.org/Graphics/SVG/1.1/DTD/svg11.dtd">
<svg xmlns="http://www.w3.org/2000/svg" version="1.1" width="120px" height="120px" style="shape-rendering:geometricPrecision; text-rendering:geometricPrecision; image-rendering:optimizeQuality; fill-rule:evenodd; clip-rule:evenodd" xmlns:xlink="http://www.w3.org/1999/xlink">
<g><path style="opacity:0.867" fill="#0c0a09" d="M 21.5,5.5 C 41.8443,5.16702 62.1776,5.50036 82.5,6.5C 87.5771,12.0757 92.0771,18.0757 96,24.5C 97.9985,44.3973 99.3318,64.3973 100,84.5C 101.509,87.3285 101.675,90.1619 100.5,93C 105.041,97.9434 106.708,103.61 105.5,110C 104.328,110.353 103.162,110.187 102,109.5C 100.398,111.698 98.5646,113.698 96.5,115.5C 93.0947,111.69 89.928,107.69 87,103.5C 84.4423,107.362 82.9423,111.695 82.5,116.5C 79.8187,116.538 77.3187,115.871 75,114.5C 72.8417,115.451 70.675,115.951 68.5,116C 67.8482,111.569 68.5149,107.235 70.5,103C 69.5,102.667 68.5,102.333 67.5,102C 52.6328,102.132 37.7995,101.632 23,100.5C 22.1066,92.3394 21.2733,84.1728 20.5,76C 20.4052,52.4092 20.7386,28.9092 21.5,5.5 Z"/></g>
<g><path style="opacity:1" fill="#d3e1e1" d="M 71.5,19.5 C 74.6981,18.9644 77.3647,19.631 79.5,21.5C 78.8617,23.46 78.8617,25.2933 79.5,27C 84.496,27.6107 89.496,28.1107 94.5,28.5C 95.5668,44.8364 95.5668,61.1698 94.5,77.5C 92.3826,75.1692 89.716,74.0026 86.5,74C 69.4927,73.6412 52.4927,73.9745 35.5,75C 35.0426,75.414 34.7093,75.914 34.5,76.5C 47.1757,77.0638 59.8424,77.3971 72.5,77.5C 68.1574,79.8495 66.1574,83.5162 66.5,88.5C 56.5,88.5 46.5,88.5 36.5,88.5C 36.5,89.5 36.5,90.5 36.5,91.5C 46.8333,91.5 57.1667,91.5 67.5,91.5C 67.3184,93.5914 67.6518,95.5914 68.5,97.5C 54.1821,98.4993 39.8488,98.8326 25.5,98.5C 24.593,68.5115 24.2596,38.5115 24.5,8.5C 42.8333,8.5 61.1667,8.5 79.5,8.5C 79.5,11.1667 79.5,13.8333 79.5,16.5C 64.4794,16.3685 49.4794,16.8685 34.5,18C 33.1667,18.6667 33.1667,19.3333 34.5,20C 46.8244,19.9553 59.1578,19.7886 71.5,19.5 Z"/></g>
<g><path style="opacity:1" fill="#b2b2b2" d="M 82.5,12.5 C 86.3492,16.1902 89.6826,20.3569 92.5,25C 89.1996,24.9545 85.8663,24.7878 82.5,24.5C 82.5,20.5 82.5,16.5 82.5,12.5 Z"/></g>
<g><path style="opacity:0.784" fill="#5b6161" d="M 71.5,19.5 C 74.2869,18.5233 77.2869,18.19 80.5,18.5C 80.7373,19.791 80.404,20.791 79.5,21.5C 77.3647,19.631 74.6981,18.9644 71.5,19.5 Z"/></g>
<g><path style="opacity:0.977" fill="#111212" d="M 50.5,28.5 C 61.8333,28.5 73.1667,28.5 84.5,28.5C 84.5,29.5 84.5,30.5 84.5,31.5C 68.1551,31.628 51.8218,31.7947 35.5,32C 34.1667,31.3333 34.1667,30.6667 35.5,30C 40.6835,29.8261 45.6835,29.3261 50.5,28.5 Z"/></g>
<g><path style="opacity:0.989" fill="#181919" d="M 71.5,37.5 C 76.1785,37.3342 80.8452,37.5008 85.5,38C 86.8333,38.6667 86.8333,39.3333 85.5,40C 71.3163,40.9463 57.1496,42.113 43,43.5C 40.8333,43.3333 38.6667,43.1667 36.5,43C 36.0426,42.586 35.7093,42.086 35.5,41.5C 47.6826,40.4888 59.6826,39.1555 71.5,37.5 Z"/></g>
<g><path style="opacity:0.986" fill="#131414" d="M 35.5,50.5 C 51.8333,50.5 68.1667,50.5 84.5,50.5C 84.5,51.5 84.5,52.5 84.5,53.5C 67.82,53.8328 51.1533,53.4995 34.5,52.5C 34.8627,51.8165 35.1961,51.1499 35.5,50.5 Z"/></g>
<g><path style="opacity:0.993" fill="#151616" d="M 67.5,62.5 C 73.8682,62.1703 80.2015,62.5037 86.5,63.5C 86.2907,64.086 85.9574,64.586 85.5,65C 69.1773,66.1232 52.8439,66.4565 36.5,66C 36.0426,65.586 35.7093,65.086 35.5,64.5C 46.3258,63.8333 56.9924,63.1666 67.5,62.5 Z"/></g>
<g><path style="opacity:1" fill="#c53b1c" d="M 75.5,76.5 C 77.6957,76.5652 79.6957,77.2319 81.5,78.5C 80.7579,79.2868 79.9246,79.9535 79,80.5C 77.3732,79.4677 76.2066,78.1344 75.5,76.5 Z"/></g>
<g><path style="opacity:1" fill="#da411f" d="M 84.5,78.5 C 86.6934,77.2031 89.0268,77.2031 91.5,78.5C 91.1131,79.7199 90.2798,80.3865 89,80.5C 87.415,79.9561 85.915,79.2894 84.5,78.5 Z"/></g>
<g><path style="opacity:1" fill="#d9411f" d="M 93.5,80.5 C 97.3441,82.2914 97.5108,84.6248 94,87.5C 91.6413,84.9908 91.4746,82.6575 93.5,80.5 Z"/></g>
<g><path style="opacity:1" fill="#dc4220" d="M 73.5,80.5 C 74.9953,80.4148 75.9953,81.0815 76.5,82.5C 75.5346,85.7728 73.5346,88.1062 70.5,89.5C 68.6639,85.4499 69.6639,82.4499 73.5,80.5 Z"/></g>
<g><path style="opacity:1" fill="#f2b60f" d="M 81.5,81.5 C 88.8682,82.0042 91.7015,85.6708 90,92.5C 85.9244,96.034 81.591,96.3674 77,93.5C 75.4783,88.2412 76.9783,84.2412 81.5,81.5 Z"/></g>
<g><path style="opacity:1" fill="#d8411f" d="M 96.5,88.5 C 98.9815,89.6962 98.9815,91.1962 96.5,93C 95.1667,93.6667 93.8333,93.6667 92.5,93C 93.3574,90.9812 94.6908,89.4812 96.5,88.5 Z"/></g>
<g><path style="opacity:1" fill="#e54521" d="M 71.5,91.5 C 74.2474,92.9728 75.0807,95.3061 74,98.5C 70.5637,97.0859 69.7304,94.7525 71.5,91.5 Z"/></g>
<g><path style="opacity:0.753" fill="#932b15" d="M 88.5,96.5 C 94.9313,96.4679 95.098,97.1345 89,98.5C 87.8333,98.3333 86.6667,98.1667 85.5,98C 86.7375,97.7679 87.7375,97.2679 88.5,96.5 Z"/></g>
<g><path style="opacity:1" fill="#e14321" d="M 97.5,95.5 C 99.977,98.4379 101.977,101.771 103.5,105.5C 99.9504,105.692 97.4504,107.358 96,110.5C 94.3967,107.388 92.5634,104.388 90.5,101.5C 92.1128,100.573 93.7795,99.7393 95.5,99C 96.8228,98.1841 97.4894,97.0174 97.5,95.5 Z"/></g>
<g><path style="opacity:1" fill="#d5401f" d="M 77.5,97.5 C 79.4233,97.795 81.0899,98.6283 82.5,100C 79.7383,101.077 78.0717,100.244 77.5,97.5 Z"/></g>
<g><path style="opacity:1" fill="#e34421" d="M 73.5,101.5 C 76.1667,102.167 78.8333,102.833 81.5,103.5C 81.4378,106.753 80.6044,109.753 79,112.5C 76.6194,111.565 74.1194,111.232 71.5,111.5C 71.8511,108.097 72.5178,104.763 73.5,101.5 Z"/></g>
</svg>
